<?xml version="1.0" standalone="no"?>
<!DOCTYPE svg PUBLIC "-//W3C//DTD SVG 20010904//EN"
 "http://www.w3.org/TR/2001/REC-SVG-20010904/DTD/svg10.dtd">
<svg version="1.0" xmlns="http://www.w3.org/2000/svg"
 width="512.000000pt" height="512.000000pt" viewBox="0 0 512.000000 512.000000"
 preserveAspectRatio="xMidYMid meet">
<metadata>
Created by potrace 1.11, written by Peter Selinger 2001-2013
</metadata>
<g transform="translate(0.000000,512.000000) scale(0.100000,-0.100000)"
fill="#000000" stroke="none">
<path d="M1147 4493 c-1 -1 -27 -4 -57 -7 -66 -6 -81 -9 -97 -19 -7 -5 -13 -5
-13 -1 0 3 -6 2 -12 -3 -14 -11 -68 -27 -80 -25 -5 1 -8 -2 -8 -8 0 -5 -5 -10
-11 -10 -17 0 -131 -81 -169 -120 -62 -63 -106 -124 -136 -185 -16 -33 -29
-62 -29 -65 -1 -3 -8 -25 -15 -50 -8 -25 -14 -54 -15 -65 0 -11 -3 -24 -6 -30
-3 -5 -6 -167 -7 -360 -2 -492 -4 -1428 -3 -1440 1 -5 20 -11 44 -11 73 -3
100 -10 162 -40 52 -25 161 -114 140 -114 -5 0 1 -8 11 -18 11 -9 24 -28 30
-42 6 -14 17 -36 23 -51 7 -14 13 -39 15 -57 1 -17 5 -34 8 -37 5 -5 4 -31 -6
-105 -6 -40 -25 -100 -37 -116 -5 -6 -1 -19 11 -32 11 -12 20 -26 20 -31 0 -5
9 -13 21 -16 11 -4 18 -9 15 -12 -2 -3 11 -20 30 -39 19 -19 34 -38 34 -43 0
-5 7 -15 17 -22 9 -8 24 -27 35 -44 10 -16 18 -27 18 -23 0 3 15 -8 34 -25 19
-18 41 -37 49 -44 19 -15 107 -46 130 -45 9 0 17 -2 17 -6 0 -4 21 -7 48 -6
26 0 57 -3 70 -8 12 -4 22 -4 22 0 0 4 25 7 55 8 30 0 58 4 61 7 4 4 -6 19
-22 34 -50 48 -134 149 -134 161 0 7 -4 12 -9 12 -5 0 -12 13 -16 30 -4 16
-10 30 -14 30 -4 0 -7 8 -8 18 0 9 -3 35 -5 57 -6 51 9 123 33 157 11 14 19
29 19 33 0 4 11 18 25 31 14 13 25 26 25 29 0 4 7 13 15 22 14 14 14 17 -1 34
-9 11 -13 19 -8 19 5 0 1 5 -9 11 -9 6 -15 14 -12 20 4 5 2 9 -3 9 -5 0 -15
15 -23 33 -7 17 -16 34 -19 37 -3 3 -13 21 -22 40 -35 76 -48 113 -42 121 3 5
1 9 -4 9 -5 0 -9 6 -9 13 -1 6 -6 37 -13 67 -11 54 -14 152 -5 200 12 71 18
97 26 113 5 9 8 17 5 17 -3 0 6 26 20 58 14 31 31 69 37 85 7 15 15 27 19 27
5 0 8 5 8 11 0 10 67 116 114 179 28 37 103 125 148 171 14 15 23 30 20 33 -3
3 -1 6 4 6 5 0 283 272 617 603 334 332 608 602 610 600 2 -1 9 7 17 20 7 12
39 46 71 75 32 28 56 52 53 52 -4 0 13 18 37 40 l44 40 -353 -3 c-193 -1 -352
0 -352 3 0 7 -77 3 -89 -5 -6 -3 -11 -3 -11 2 0 6 -1197 13 -1203 6z"/>
<path d="M3519 4136 c-2 -2 -26 -5 -54 -7 -27 -2 -52 -6 -55 -11 -3 -4 -20 -8
-38 -10 -18 -1 -32 -5 -32 -9 0 -7 -39 -22 -52 -20 -5 1 -8 -3 -8 -9 0 -5 -5
-10 -10 -10 -14 0 -63 -44 -183 -165 -55 -55 -104 -99 -108 -97 -5 1 -9 -3 -9
-8 0 -13 -750 -760 -762 -760 -5 0 -8 -3 -6 -7 2 -5 -13 -24 -34 -44 -21 -21
-38 -35 -38 -33 0 2 -12 -9 -27 -24 -15 -15 -27 -30 -25 -34 1 -5 -2 -8 -7 -8
-12 0 -116 -103 -113 -112 1 -5 -2 -8 -7 -8 -5 0 -49 -40 -97 -88 -105 -104
-157 -162 -147 -162 3 0 -3 -10 -14 -22 -18 -21 -53 -100 -60 -138 -15 -79 -6
-166 25 -243 15 -36 13 -34 197 -220 87 -89 158 -165 157 -169 -1 -5 3 -8 9
-8 14 0 189 -178 189 -192 0 -6 3 -9 6 -6 6 7 374 -361 374 -374 0 -4 4 -8 8
-8 5 0 32 -22 60 -48 37 -35 67 -52 104 -63 29 -8 56 -13 61 -11 4 1 7 -2 7
-6 0 -10 118 -7 152 3 51 16 135 60 173 90 58 47 485 474 485 485 0 6 5 10 11
10 5 0 33 23 61 50 28 27 55 50 59 50 5 0 9 4 9 9 0 6 349 361 355 361 7 0
111 111 108 114 -3 2 5 7 16 11 12 3 21 10 21 15 0 5 6 15 14 22 88 81 232
229 228 233 -3 3 -1 5 5 5 12 0 54 40 120 114 41 46 89 130 98 174 3 12 8 32
11 45 14 53 4 168 -18 194 -6 7 -7 13 -4 13 7 0 -10 35 -28 58 -6 7 -62 66
-123 129 -62 64 -113 120 -113 125 0 5 -4 6 -10 3 -5 -3 -10 1 -10 9 0 9 -4
16 -9 16 -13 0 -149 138 -143 145 3 3 1 5 -5 5 -13 0 -83 68 -83 80 0 6 -4 10
-9 10 -7 0 -71 56 -71 63 0 7 -183 187 -190 187 -5 0 -12 9 -15 20 -3 11 -13
20 -21 20 -8 0 -13 3 -12 8 4 10 -69 81 -76 74 -3 -3 -6 1 -6 8 0 15 -67 80
-74 72 -4 -3 -6 2 -6 11 0 9 -11 19 -25 23 -14 3 -25 10 -25 15 0 5 -7 9 -15
9 -8 0 -15 4 -15 9 0 9 -57 24 -95 25 -11 1 -23 4 -26 9 -3 4 -7 5 -10 3z
m-26 -225 c27 -8 51 -20 54 -27 3 -8 12 -14 21 -14 17 0 492 -473 492 -490 0
-5 4 -9 8 -7 11 3 132 -118 132 -132 0 -6 5 -11 11 -11 14 0 139 -125 139
-139 0 -6 5 -11 12 -11 22 0 149 -145 174 -200 29 -63 34 -81 35 -130 2 -65
-49 -206 -78 -217 -7 -3 -13 -12 -13 -21 0 -8 -2 -13 -4 -11 -3 2 -206 -195
-452 -438 -246 -244 -451 -443 -457 -443 -6 0 -8 -3 -5 -6 4 -3 -8 -19 -25
-36 -18 -16 -77 -73 -132 -126 -88 -85 -124 -111 -215 -152 -33 -15 -199 3
-211 22 -5 7 -9 10 -9 5 0 -30 -122 83 -525 487 -503 503 -513 515 -521 630
-3 34 -7 66 -9 73 -2 7 0 15 6 18 5 4 7 10 4 15 -3 4 2 21 10 36 8 16 15 35
15 42 0 6 5 12 10 12 6 0 10 7 10 15 0 8 92 107 205 219 113 113 205 204 205
202 0 -1 173 170 384 380 339 337 445 435 481 444 17 4 39 11 59 19 29 11 136
6 189 -8z"/>
<path d="M4343 1753 c-7 -3 -13 -11 -13 -19 0 -8 -4 -14 -9 -14 -5 0 -150
-141 -323 -312 -280 -279 -395 -390 -454 -438 -58 -47 -142 -109 -164 -120
-14 -7 -27 -16 -30 -20 -11 -14 -78 -50 -94 -50 -10 0 -14 -4 -11 -10 3 -5 -1
-11 -9 -11 -33 -3 -37 -4 -46 -19 -5 -8 -10 -12 -10 -7 0 4 -15 1 -34 -7 -19
-8 -37 -12 -40 -8 -3 3 -6 -1 -6 -8 0 -7 -2 -11 -6 -8 -3 3 -24 0 -47 -7 -23
-7 -54 -11 -69 -11 -16 1 -28 -1 -28 -5 0 -9 -76 -6 -85 3 -4 3 -20 2 -36 -2
-21 -6 -33 -5 -44 6 -8 9 -15 11 -15 6 0 -8 -61 6 -115 27 -11 5 -23 9 -28 9
-14 2 -172 86 -175 94 -2 4 -9 8 -16 8 -7 0 -22 9 -34 21 l-22 20 -33 -23
c-17 -12 -40 -31 -50 -41 -25 -25 -118 -66 -158 -69 -45 -3 -127 11 -134 23
-4 5 -11 7 -16 4 -5 -4 -9 -1 -9 5 0 6 -4 9 -9 6 -4 -3 -18 2 -29 12 -12 9
-36 28 -54 42 -18 14 -65 57 -105 97 -40 39 -73 68 -73 64 0 -4 -14 -7 -30 -6
-17 1 -33 -1 -35 -5 -2 -4 -19 -8 -37 -9 -18 -1 -56 -3 -84 -5 -28 -2 -56 -6
-63 -10 -6 -4 -11 -4 -11 1 0 4 -31 8 -70 8 -38 0 -70 4 -70 8 0 5 -4 6 -8 3
-10 -6 -105 16 -147 34 -16 7 -34 14 -38 14 -4 1 -11 7 -16 14 -5 8 -11 13
-15 12 -13 -3 -76 39 -76 51 0 7 -3 10 -6 7 -7 -8 -74 65 -74 81 0 6 -5 11
-10 11 -6 0 -16 11 -22 25 -6 14 -17 25 -25 25 -7 0 -13 10 -13 22 0 12 -2 19
-6 16 -3 -3 -24 14 -47 39 l-43 45 -52 -31 c-29 -17 -52 -29 -52 -26 0 2 -17
-2 -37 -9 -21 -7 -55 -12 -75 -11 -21 1 -43 -2 -49 -6 -14 -8 -14 -75 0 -112
5 -14 8 -27 5 -30 -6 -5 34 -114 53 -143 7 -11 10 -24 6 -27 -3 -4 -1 -7 6 -7
6 0 16 -11 21 -25 11 -29 19 -39 76 -101 22 -24 39 -46 36 -49 -3 -3 2 -5 10
-5 9 0 18 -4 20 -8 4 -12 95 -72 107 -72 6 0 11 -4 11 -10 0 -5 4 -10 9 -10 5
0 25 -7 45 -15 20 -8 38 -15 41 -16 2 0 19 -5 37 -10 18 -6 42 -13 53 -16 11
-3 154 -7 318 -9 164 -1 305 -5 313 -8 7 -3 16 -1 19 4 4 7 13 6 25 0 13 -7
21 -7 25 0 4 7 13 7 26 0 10 -6 19 -7 19 -2 0 5 18 6 40 2 22 -4 40 -3 40 2 0
5 8 4 19 -1 10 -6 21 -8 23 -5 8 7 388 10 388 3 0 -3 7 -6 15 -6 8 0 15 4 15
9 0 5 5 6 12 2 13 -8 175 -7 189 1 5 4 9 3 9 -2 0 -9 1227 -9 1272 0 14 3 43
11 65 17 45 15 56 18 64 16 3 0 14 7 24 17 9 10 24 16 31 13 8 -3 14 -1 14 5
0 5 12 15 28 22 97 43 269 250 288 347 0 3 3 12 6 20 16 45 29 102 33 154 3
33 7 61 9 64 2 2 0 16 -4 32 -5 16 -5 45 0 64 4 20 4 36 0 36 -4 0 -5 15 -3
33 3 17 4 50 4 72 0 22 -1 69 0 105 0 124 1 120 -18 113z"/>
</g>
</svg>
